<?xml version="1.0" encoding="utf-8"?>
<!-- Generator: Adobe Illustrator 28.1.0, SVG Export Plug-In . SVG Version: 6.00 Build 0)  -->
<svg version="1.1" id="Laag_1" xmlns="http://www.w3.org/2000/svg" xmlns:xlink="http://www.w3.org/1999/xlink" x="0px" y="0px"
	 viewBox="0 0 535.4 112.9" style="enable-background:new 0 0 535.4 112.9;" xml:space="preserve">
<style type="text/css">
	.st0{fill:#989898;stroke:#1D1D1B;stroke-miterlimit:10;}
	.st1{stroke:#000000;stroke-miterlimit:10;}
	.st2{fill:#FFFFFF;}
	.st3{font-family:'RetroComputer';}
	.st4{font-size:60.0559px;}
	.st5{fill:#0000C1;stroke:#000000;stroke-width:0.75;stroke-miterlimit:10;}
	.st6{font-family:'PerfectDOSVGA437';}
	.st7{font-size:10px;}
	.st8{fill:#8C0000;}
	.st9{fill:#000085;}
	.st10{fill:#8C0084;}
	.st11{fill:#FEFE00;}
	.st12{fill:#808000;}
	.st13{fill:#FE0000;}
	.st14{fill:#BFBFBF;}
	.st15{fill:#808080;}
	.st16{fill:#FEFEFE;}
	.st17{fill:#FE00FE;}
	.st18{fill:#0000FE;}
</style>
<rect x="0.8" y="0.6" width="534.6" height="110.2"/>
<rect y="0" class="st0" width="534.9" height="112.9"/>
<rect x="4.8" y="24.4" class="st1" width="525.9" height="84.3"/>
<text transform="matrix(1 0 0 1 68.1611 85.9846)" class="st2 st3 st4">DEVS.EXE</text>
<rect x="4.8" y="3.6" class="st5" width="525.9" height="18.1"/>
<text transform="matrix(1 0 0 1 26.9151 16.2285)" class="st2 st6 st7">WEB-APP-FROM-SCRATCH-2324</text>
<g id="ENvnGh.tif">
	<g>
		<path d="M10.6,19.4c0-0.1,0-0.3,0-0.4l0,0c1.3,0,2.5,0,3.8,0c0,0.1,0,0.3,0,0.4C13.2,19.4,11.9,19.4,10.6,19.4z"/>
		<path d="M18.2,19.4c-1,0-2,0-2.9,0c0-0.1,0-0.3,0-0.4c0.1,0,0.3,0,0.4,0c0.1,0,0.3,0,0.4,0c0.1,0,0.3,0,0.4,0c0.1,0,0.3,0,0.4,0
			c0.1,0,0.3,0,0.4,0c0.1,0,0.3,0,0.4,0c0.1,0,0.3,0,0.4,0C18.2,19.1,18.2,19.3,18.2,19.4z"/>
		<path d="M22.8,18.1c-0.1,0-0.3,0-0.4,0l0,0c0-0.4,0-0.8,0-1.3c0-0.6,0-1.1,0-1.7c0,0,0,0,0,0c0.1,0,0.3,0,0.4,0
			C22.8,16.2,22.8,17.2,22.8,18.1z"/>
		<path d="M21.2,19c0,0.1,0,0.3,0,0.4c-0.8,0-1.7,0-2.5,0c0-0.1,0-0.3,0-0.4C19.5,19,20.3,19,21.2,19L21.2,19z"/>
		<path d="M22.8,13.5c-0.1,0-0.3,0-0.4,0l0,0c0-0.3,0-0.6,0-0.8c0-0.1,0-0.3,0-0.4l0,0c0.1,0,0.3,0,0.4,0
			C22.8,12.7,22.8,13.1,22.8,13.5z"/>
		<path d="M10.6,19c-0.4,0-0.4,0-0.4-0.4c0-2.4,0-4.9,0-7.3c0-0.2,0-0.3,0.3-0.3c0.2,0,0.2-0.1,0.2-0.2c0-1.5,0-3,0-4.5
			c0-0.3,0.1-0.3,0.3-0.3c0.4,0,0.7,0,1.1,0c0.2,0,0.3,0.1,0.3,0.3c0,0,0,0.1,0,0.1c0,0,0,0,0,0c-0.1,0-0.3,0-0.4,0
			c-0.2,0-0.4,0-0.6,0c-0.2,0-0.2,0.1-0.2,0.2c0,1.3,0,2.7,0,4c0,0.4,0,0.4,0.4,0.4c0.4,0,0.4,0,0.4-0.4c0-0.6,0-1.2,0-1.8
			c0-0.3,0.1-0.3,0.3-0.3c0,0,0.1,0,0.1,0c0,0.1,0,0.2,0,0.3c0,0.1,0,0.1,0.1,0.1c0.3-0.1,0.3,0.2,0.3,0.4c0,0.2,0,0.3,0,0.5
			c-0.1,0-0.1,0-0.2,0c-0.2,0-0.3,0-0.3,0.3c0,0.2,0,0.4,0,0.6c0,0.4,0,0.4,0.4,0.4c0.4,0,0.4,0,0.4-0.4c0.1,0.1,0.5-0.2,0.4,0.2
			c0,0.2,0.1,0.2,0.2,0.2s0.2,0,0.2-0.2c0-0.2,0-0.3,0.2-0.2c0.1,0,0.1,0,0.2,0c0,0.3,0,0.6,0,0.8c-0.1,0-0.3,0-0.4,0
			c-1.1,0-2.1,0-3.2,0c-0.2,0-0.2,0.1-0.2,0.2c0,2.3,0,4.6,0,7C10.7,18.7,10.6,18.8,10.6,19C10.6,19,10.6,19,10.6,19z"/>
		<path d="M15.3,6.4c0-0.4,0-0.4,0.4-0.4c0.3,0,0.7,0,1,0C16.9,5.9,17,6,17,6.2c0,1.5,0,3,0,4.5c0,0.2,0.1,0.3,0.3,0.3
			c0.2,0,0.4,0,0.5,0c0,0,0,0,0,0c0,0.1,0,0.3,0,0.4c-0.1,0-0.3,0-0.4,0c-0.1,0-0.3,0-0.4,0c-0.1,0-0.3,0-0.4,0c-0.1,0-0.3,0-0.4,0
			c-0.1,0-0.3,0-0.4,0c-0.1,0-0.3,0-0.4,0c-0.1,0-0.3,0-0.4,0c0,0,0-0.1,0-0.1c0-0.2,0-0.3,0.3-0.3c0.1,0,0.1,0,0.1-0.1
			c0-0.2,0-0.5,0-0.7c0-0.4,0-0.4-0.4-0.4c0-0.2,0-0.4,0-0.6c0-0.2,0-0.3,0.2-0.2c0.2,0,0.2-0.1,0.2-0.2c0-0.1,0-0.1,0-0.2
			c0.1,0,0.3,0,0.4,0c0,0.7,0,1.4,0,2.1c0,0.4,0,0.4,0.4,0.4c0.4,0,0.4,0,0.4-0.4c0-1.3,0-2.6,0-3.9c0-0.4,0-0.4-0.4-0.4
			c0,0,0,0-0.1,0C15.8,6.4,15.5,6.4,15.3,6.4C15.3,6.4,15.3,6.4,15.3,6.4z"/>
		<path d="M21.6,6.8c0.4,0,0.4,0,0.4,0.4c0,0.2,0,0.5,0,0.7C22,8,22,8,21.8,8c-0.5,0-1,0-1.5,0l0,0c0-0.3,0-0.6,0-0.8
			c0,0,0.1,0,0.1,0c0.2,0,0.4,0,0.3,0.3c0,0.1,0,0.1,0.1,0.1c0.1,0,0.2,0,0.3,0c0.1,0,0.1,0,0.2,0c0.2,0,0.3,0,0.3-0.3
			C21.6,7.2,21.6,7,21.6,6.8L21.6,6.8z"/>
		<path d="M21.2,11c0,0.1,0,0.3,0,0.4l0,0c-1,0-2,0-2.9,0c0-0.1,0-0.3,0-0.4c0,0,0,0,0,0c0.8,0,1.7,0,2.5,0C20.9,11,21,11,21.2,11
			L21.2,11z"/>
		<path d="M18.6,6.4c0-0.4,0-0.4,0.4-0.4c0.5,0,0.9,0,1.4,0c0.3,0,0.3,0.1,0.3,0.3c0,0,0,0.1,0,0.1c0,0,0,0,0,0c-0.1,0-0.3,0-0.4,0
			C19.8,6.4,19.2,6.4,18.6,6.4L18.6,6.4z"/>
		<path d="M17.8,10.6c-0.4,0-0.4,0-0.4-0.4c0-0.2,0-0.5,0-0.7c0-0.1,0-0.2,0.2-0.2c0.4,0,0.7,0,1.1,0c0,0,0,0,0,0c0,0.1,0,0.3,0,0.4
			c-0.2,0-0.5,0-0.7,0c-0.1,0-0.1,0-0.1,0.1C17.8,10.1,17.8,10.3,17.8,10.6L17.8,10.6z"/>
		<path d="M17.8,8.5c-0.4,0-0.4,0-0.4-0.4c0-0.3,0-0.7,0-1c0-0.2,0.1-0.3,0.3-0.3c0.1,0,0.1,0,0.2,0l0,0C17.8,7.3,17.8,7.9,17.8,8.5
			L17.8,8.5z"/>
		<path d="M20.3,8c0,0.1,0,0.3,0,0.4c0,0,0,0,0,0c-0.1,0-0.3,0-0.4,0c-0.3,0-0.6,0-0.8,0c0-0.1,0-0.3,0-0.4C19.5,8,19.9,8,20.3,8
			L20.3,8z"/>
		<path d="M18.6,9.3c0-0.1,0-0.3,0-0.4c0,0,0,0,0,0c0.4,0,0.8,0,1.3,0c0,0.1,0,0.3,0,0.4C19.5,9.3,19.1,9.3,18.6,9.3L18.6,9.3z"/>
		<path d="M21.6,9.3c0.4,0,0.4,0,0.4,0.4c0,0.2,0,0.4,0,0.6c0,0.2,0,0.3-0.3,0.3c-0.1,0-0.1,0-0.2,0l0,0
			C21.6,10.1,21.6,9.7,21.6,9.3L21.6,9.3z"/>
		<path d="M14,8.9c0-0.2,0-0.4,0-0.6C14,8.1,14,8,14.3,8c0.1,0,0.1,0,0.2,0l0,0c0,0.1,0,0.3,0,0.4C14.4,8.9,14.4,8.9,14,8.9L14,8.9z
			"/>
		<path d="M12.7,7.2c0.4,0,0.4,0,0.4,0.4c0,0.1,0,0.3,0,0.4l0,0c-0.1,0-0.3,0-0.4,0c0-0.1,0-0.3,0-0.4C12.7,7.5,12.7,7.3,12.7,7.2
			L12.7,7.2z"/>
		<path d="M14.4,8c0-0.2,0-0.4,0-0.6c0-0.2,0-0.3,0.2-0.3c0.1,0,0.1,0,0.2,0c0,0,0,0,0,0c0,0.1,0,0.3,0,0.4C14.9,8,14.9,8,14.4,8
			L14.4,8z"/>
		<path d="M18.6,8.9c-0.2,0-0.4,0-0.6,0c-0.2,0-0.3,0-0.3-0.2c0-0.1,0-0.1,0-0.2c0,0,0,0,0,0c0.1,0,0.3,0,0.4,0c0.1,0,0.3,0,0.4,0
			C18.6,8.6,18.6,8.7,18.6,8.9C18.6,8.9,18.6,8.9,18.6,8.9z"/>
		<path d="M12.3,6.4c0.4,0,0.4,0,0.4,0.4c0,0.1,0,0.3,0,0.4c0,0,0,0,0,0c-0.1,0-0.3,0-0.4,0c0-0.1,0-0.3,0-0.4
			C12.3,6.6,12.3,6.5,12.3,6.4C12.3,6.4,12.3,6.4,12.3,6.4z"/>
		<path d="M14.9,7.2c0-0.2,0-0.4,0-0.6c0-0.2,0-0.3,0.2-0.3c0.1,0,0.1,0,0.2,0c0,0,0,0,0,0c0,0.1,0,0.3,0,0.4
			C15.3,7.2,15.3,7.2,14.9,7.2C14.8,7.2,14.9,7.2,14.9,7.2z"/>
		<path d="M20.3,8.5c0.2,0,0.4,0,0.6,0c0.2,0,0.3,0,0.3,0.2c0,0.1,0,0.1,0,0.2c0,0,0,0,0,0c-0.1,0-0.3,0-0.4,0c-0.1,0-0.3,0-0.4,0
			C20.3,8.7,20.3,8.6,20.3,8.5L20.3,8.5z"/>
		<path d="M17.8,6.8c0-0.4,0-0.4,0.4-0.4c0.1,0,0.3,0,0.4,0c0,0,0,0,0,0c0,0.1,0,0.3,0,0.4C18.4,6.8,18.1,6.8,17.8,6.8L17.8,6.8z"/>
		<path d="M13.2,8c0.4,0,0.4,0,0.4,0.4c0,0.1,0,0.3,0,0.4c0,0,0,0,0,0c-0.1,0-0.3,0-0.4,0c0-0.1,0-0.3,0-0.4
			C13.2,8.3,13.2,8.2,13.2,8L13.2,8z"/>
		<path d="M13.6,8.9c0.1,0,0.3,0,0.4,0c0,0,0,0,0,0c0,0.3,0,0.6,0,0.8c-0.1,0-0.3,0-0.4,0c0-0.1,0-0.3,0-0.4
			C13.6,9.2,13.6,9,13.6,8.9L13.6,8.9z"/>
		<path d="M20.7,6.4c0.2,0,0.4,0,0.6,0c0.2,0,0.3,0,0.3,0.2c0,0.1,0,0.1,0,0.2c0,0,0,0,0,0c-0.1,0-0.3,0-0.4,0c-0.1,0-0.3,0-0.4,0
			C20.7,6.6,20.7,6.5,20.7,6.4L20.7,6.4z"/>
		<path d="M21.2,11.4c0.2,0,0.4,0,0.6,0c0.2,0,0.3,0,0.3,0.2c0,0.1,0,0.1,0,0.2l0,0c-0.1,0-0.3,0-0.4,0
			C21.2,11.8,21.2,11.8,21.2,11.4L21.2,11.4z"/>
		<path d="M22,11.8c0.4,0,0.4,0,0.4,0.4l0,0C22,12.3,22,12.3,22,11.8L22,11.8z"/>
		<path d="M21.2,8.9c0.4,0,0.4,0,0.4,0.4c0,0,0,0,0,0c-0.1,0-0.3,0-0.4,0l0,0C21.2,9.2,21.2,9,21.2,8.9L21.2,8.9z"/>
		<path d="M21.6,10.6c0,0.4,0,0.4-0.4,0.4c0,0,0,0,0,0c0-0.1,0-0.3,0-0.4l0,0C21.3,10.6,21.4,10.6,21.6,10.6L21.6,10.6z"/>
		<path d="M17.8,11c0-0.1,0-0.3,0-0.4c0,0,0,0,0,0c0.4,0,0.4,0,0.4,0.4l0,0C18.1,11,17.9,11,17.8,11L17.8,11z"/>
		<path class="st8" d="M10.6,19c0-0.1,0-0.3,0-0.4c0.1,0,0.4,0.1,0.4-0.2c0-0.2,0.1-0.2,0.3-0.2c1,0,1.9,0,2.9,0
			c0.2,0,0.3,0,0.2-0.2c0-0.2,0-0.2,0.2-0.2c0.1,0,0.1,0,0.2,0c0,0.2,0,0.4,0,0.6c0,0.2,0,0.3-0.2,0.3c-0.1,0-0.2,0-0.2,0.2
			c0,0.1,0,0.2,0,0.2c0,0,0,0,0,0C13.2,19,11.9,19,10.6,19z"/>
		<path d="M21.2,13.9c0,0.1,0,0.3,0,0.4l0,0c-0.3,0-0.6-0.1-0.8,0c-0.2,0.2,0,0.5-0.1,0.8c0,0.4,0,0.4,0.4,0.4c0,0.1,0,0.3,0,0.4
			c-0.3,0-0.6,0-0.8,0c0-0.1,0-0.3,0-0.4c0-0.1,0-0.3,0-0.4c0-0.1,0-0.3,0-0.4c0-0.1,0-0.3,0-0.4c0-0.1,0-0.3,0-0.4
			c0-0.1,0-0.3,0-0.4c0-0.5,0.1-0.4-0.4-0.4c-0.1,0-0.3,0-0.4,0c-0.1,0-0.3,0-0.4,0c0-0.1,0-0.1,0-0.2c0-0.2,0-0.3,0.3-0.3
			c0.6,0,1.2,0,1.8,0c0,0.1,0,0.3,0,0.4c-0.4,0-0.4,0-0.4,0.4c0,0.1,0,0.2,0,0.3c0,0.1,0,0.1,0.1,0.1C20.7,13.9,20.9,13.9,21.2,13.9
			C21.2,13.9,21.2,13.9,21.2,13.9z"/>
		<path d="M22.4,13.5c0,0.4,0,0.4-0.4,0.4c-0.3,0-0.6,0-0.9,0c0,0,0,0,0,0c0-0.1,0-0.3,0-0.4C21.6,13.5,22,13.5,22.4,13.5L22.4,13.5
			z"/>
		<path d="M21.2,14.4c0.2,0,0.4,0,0.6,0c0.2,0,0.3,0,0.3,0.2c0,0.1,0,0.1,0,0.2l0,0c-0.1,0-0.3,0-0.4,0
			C21.2,14.8,21.2,14.8,21.2,14.4L21.2,14.4z"/>
		<path d="M22,14.8c0.4,0,0.4,0,0.4,0.4l0,0C22,15.2,22,15.2,22,14.8L22,14.8z"/>
		<path class="st9" d="M15.7,19c-0.1,0-0.3,0-0.4,0c0,0,0,0,0,0c0-0.1,0-0.3,0-0.4c0.1,0,0.3,0,0.4,0C15.7,18.7,15.7,18.8,15.7,19z"
			/>
		<path class="st10" d="M15.7,19c0-0.1,0-0.3,0-0.4c0,0,0,0,0,0c0.1,0,0.3,0,0.4,0c0,0.1,0,0.3,0,0.4C16,19,15.8,19,15.7,19z"/>
		<path class="st9" d="M16.1,19c0-0.1,0-0.3,0-0.4c0,0,0,0,0,0c0.1,0,0.3,0,0.4,0c0,0.1,0,0.3,0,0.4C16.4,19,16.3,19,16.1,19z"/>
		<path class="st10" d="M16.5,19c0-0.1,0-0.3,0-0.4c0,0,0,0,0,0c0.1,0,0.3,0,0.4,0c0,0.1,0,0.3,0,0.4C16.8,19,16.7,19,16.5,19z"/>
		<path class="st9" d="M17,19c0-0.1,0-0.3,0-0.4c0,0,0,0,0,0c0.1,0,0.3,0,0.4,0c0,0.1,0,0.3,0,0.4C17.2,19,17.1,19,17,19z"/>
		<path class="st10" d="M17.4,19c0-0.1,0-0.3,0-0.4c0,0,0,0,0,0c0.1,0,0.3,0,0.4,0c0,0.1,0,0.3,0,0.4C17.7,19,17.5,19,17.4,19z"/>
		<path class="st9" d="M17.8,19c0-0.1,0-0.3,0-0.4c0,0,0,0,0,0c0.1,0,0.3,0,0.4,0l0,0c0,0.1,0,0.3,0,0.4c0,0,0,0,0,0
			C18.1,19,17.9,19,17.8,19z"/>
		<path d="M22,18.6c0,0.4,0,0.4-0.4,0.4c-0.1,0-0.3,0-0.4,0l0,0c0-0.4,0-0.4,0.4-0.4C21.7,18.6,21.9,18.6,22,18.6L22,18.6z"/>
		<path d="M22.4,18.1c0,0.4,0,0.4-0.4,0.4l0,0C22,18.1,22,18.1,22.4,18.1L22.4,18.1z"/>
		<path class="st11" d="M22,14.8c0,0.4,0,0.4,0.4,0.4c0,0.6,0,1.1,0,1.7c0,0-0.1,0-0.1,0c-0.2,0-0.4,0-0.3,0.3
			c0,0.2-0.1,0.1-0.2,0.1c-0.2,0-0.2,0-0.2,0.2c0,0.2,0,0.2-0.2,0.2c-0.2,0-0.2,0.1-0.2,0.2c0,0.1,0,0.2-0.2,0.2c-0.6,0-1.2,0-1.8,0
			c-0.1,0-0.2,0-0.2-0.1c0.1-0.3-0.1-0.3-0.4-0.3c-0.1,0-0.2,0-0.3,0c-0.2,0-0.2-0.1-0.2-0.2c0-0.2-0.1-0.3-0.2-0.2
			c-0.2,0-0.2,0-0.2-0.2c0-0.1,0-0.1,0-0.2c0-0.4,0-0.4-0.4-0.4c0-0.1,0-0.3,0-0.4c0.4,0,0.8,0,1.3,0c0,0.4,0,0.4,0.4,0.4
			c0,0.1,0,0.1,0,0.2c0,0.2,0.1,0.3,0.3,0.3c0.3,0,0.7,0,1,0c0.4,0,0.4,0,0.4-0.4l0,0c0.4,0,0.4,0,0.4-0.4c0-0.4,0-0.4-0.4-0.4
			c0-0.4,0-0.4-0.4-0.4c0-0.3-0.1-0.6,0.1-0.8c0.2-0.1,0.5,0,0.8,0c0,0.4,0,0.4,0.4,0.4C21.7,14.8,21.9,14.8,22,14.8z"/>
		<path class="st12" d="M17.4,16.4c0.4,0,0.4,0,0.4,0.4c0,0.1,0,0.1,0,0.2c0,0.1,0,0.2,0.2,0.2c0.2,0,0.3,0,0.2,0.2
			c0,0.1,0,0.2,0.2,0.2c0.1,0,0.2,0,0.3,0c0.2,0,0.4,0,0.4,0.3c0,0.1,0.1,0.1,0.2,0.1c0.6,0,1.2,0,1.8,0c0.2,0,0.2-0.1,0.2-0.2
			c0-0.2,0-0.3,0.2-0.2c0.2,0,0.2-0.1,0.2-0.2c0-0.2,0-0.2,0.2-0.2c0.1,0,0.2,0,0.2-0.1c0-0.3,0.1-0.3,0.3-0.3c0,0,0.1,0,0.1,0
			c0,0.4,0,0.8,0,1.3c-0.4,0-0.4,0-0.4,0.4c-0.1,0-0.3,0-0.4,0c-0.4,0-0.4,0-0.4,0.4c-0.8,0-1.7,0-2.5,0c0,0,0,0,0,0
			c0-0.4,0-0.4-0.4-0.4c0,0,0,0,0,0c0-0.4,0-0.4-0.4-0.4l0,0c0-0.4,0-0.4-0.4-0.4C17.4,17.3,17.4,16.9,17.4,16.4z"/>
		<path class="st11" d="M20.7,12.7c-0.6,0-1.2,0-1.8,0c-0.2,0-0.3,0-0.3,0.3c0,0.1,0,0.1,0,0.2l0,0c-0.1,0-0.1,0-0.2,0
			c-0.2,0-0.3,0-0.3,0.3c0,0.3,0,0.7,0,1c-0.1,0-0.3,0-0.4,0c0-0.4,0-0.4-0.4-0.4c0-0.6,0-1.1,0-1.7c0.4,0,0.4,0,0.4-0.4
			c0,0,0,0,0,0c0.4,0,0.4,0,0.4-0.4l0,0c1,0,2,0,2.9,0c0,0.4,0,0.4,0.4,0.4c0.1,0,0.3,0,0.4,0c0,0.4,0,0.4,0.4,0.4
			c0,0.1,0,0.3,0,0.4c0,0-0.1,0-0.1,0c-0.2,0-0.4,0-0.3,0.3c0,0.1,0,0.1-0.2,0.1c-0.2,0-0.5,0-0.7,0C21.1,12.7,21.1,12.7,20.7,12.7z
			"/>
		<path class="st12" d="M21.2,13.1c0.2,0,0.5,0,0.7,0c0.1,0,0.2,0,0.2-0.1c-0.1-0.3,0.1-0.3,0.3-0.3c0,0,0.1,0,0.1,0
			c0,0.3,0,0.6,0,0.8c-0.4,0-0.8,0-1.3,0l0,0C21.2,13.4,21.2,13.2,21.2,13.1C21.1,13.1,21.2,13.1,21.2,13.1z"/>
		<path d="M15.3,18.6c0,0.1,0,0.3,0,0.4c-0.3,0-0.6,0-0.8,0c0-0.1,0-0.2,0-0.2c0-0.1,0-0.2,0.2-0.2c0.2,0,0.2-0.1,0.2-0.3
			c0-0.2,0-0.4,0-0.6c0-0.4,0-0.4,0.4-0.4c0.1,0,0.3,0,0.4,0l0,0c0,0.1,0,0.3,0,0.4c-0.4,0-0.4,0-0.4,0.4
			C15.3,18.3,15.3,18.4,15.3,18.6z"/>
		<path d="M18.2,18.6c0.4,0,0.4,0,0.4,0.4c-0.1,0-0.3,0-0.4,0C18.2,18.8,18.2,18.7,18.2,18.6z"/>
		<path class="st13" d="M15.3,17.3c-0.4,0-0.4,0-0.4,0.4c-0.1,0-0.1,0-0.2,0c-0.2,0-0.2,0.1-0.2,0.2c0,0.2-0.1,0.2-0.2,0.2
			c-1,0-1.9,0-2.9,0c-0.2,0-0.3,0-0.3,0.2c0,0.3-0.3,0.1-0.4,0.2c0-2.3,0-4.6,0-7c0-0.1,0-0.2,0.2-0.2c1.1,0,2.1,0,3.2,0
			c0,0.1,0,0.3,0,0.4c-0.4,0-0.4,0-0.4,0.4c0,0.1,0,0.3,0,0.4c-0.3,0-0.6,0-0.9,0c-0.3,0-0.6-0.1-0.8,0c-0.2,0.2,0,0.5-0.1,0.8
			c0,1.1,0,2.1,0,3.2c0,0.2,0.1,0.2,0.2,0.2c0.6,0,1.3,0,1.9,0c0.4,0,0.4,0,0.4-0.4c0.2,0,0.5,0.1,0.4-0.3c0-0.1,0.1-0.1,0.1-0.1
			c0.3,0.1,0.3-0.1,0.3-0.3c0-0.9,0-1.8,0-2.6c0.2,0,0.4,0,0.7,0c0.2,0,0.2,0,0.2,0.2c0,0.9,0,1.8,0,2.8c-0.4,0-0.4,0-0.4,0.4l0,0
			c0,0-0.1,0-0.1,0c-0.2,0-0.3,0.1-0.3,0.3C15.3,16.9,15.3,17.1,15.3,17.3z"/>
		<path class="st14" d="M13.6,9.3c0,0.1,0,0.3,0,0.4c0,0.1,0,0.1,0,0.2c0,0.1,0,0.3,0.2,0.3C14,10.2,14,10,14,9.9c0-0.1,0-0.1,0-0.2
			c0-0.3,0-0.6,0-0.8c0.4,0,0.4,0,0.4-0.4c0-0.1,0-0.3,0-0.4c0.4,0,0.4,0,0.4-0.4c0-0.1,0-0.3,0-0.4c0.4,0,0.4,0,0.4-0.4
			c0-0.1,0-0.3,0-0.4c0.3,0,0.6,0,0.8,0c0,1.5,0,3.1,0,4.6c-0.4,0-0.4,0-0.4-0.4c0-0.7,0-1.4,0-2.1c0-0.1,0-0.1,0-0.2
			c0-0.1,0-0.3-0.2-0.3c-0.2,0-0.2,0.1-0.2,0.3c0,0.1,0,0.1,0,0.2c0,0.1,0,0.1,0,0.2c0,0.2,0,0.3-0.2,0.2c-0.2,0-0.2,0.1-0.2,0.2
			c0,0.2,0,0.4,0,0.6l0,0c-0.1,0-0.1,0-0.2,0c-0.2,0-0.3,0.1-0.2,0.3c0,0.2,0,0.4,0,0.6l0,0c-0.1,0-0.1,0-0.2,0
			c-0.2,0-0.3,0-0.2,0.2c0,0.2-0.1,0.2-0.2,0.2s-0.2,0-0.2-0.2c0-0.4-0.3-0.2-0.4-0.2l0,0c0-0.1,0-0.3,0-0.4c0-0.4,0-0.4-0.4-0.4
			l0,0c0-0.2,0-0.3,0-0.5c0-0.2,0-0.4-0.3-0.4c-0.1,0-0.1,0-0.1-0.1c0-0.1,0-0.2,0-0.3C12.3,8.2,12.4,8,12,8c-0.1,0-0.1-0.1-0.1-0.2
			c0-0.2-0.1-0.2-0.2-0.2c-0.2,0-0.2,0.1-0.2,0.3c0,1,0,2.1,0,3.1c-0.4,0-0.4,0-0.4-0.4c0-1.3,0-2.7,0-4c0-0.2,0-0.3,0.2-0.2
			c0.2,0,0.4,0,0.6,0c0,0.4,0,0.4,0.4,0.4c0,0.1,0,0.3,0,0.4c0,0.4,0,0.4,0.4,0.4c0,0.1,0,0.3,0,0.4c0,0.4,0,0.4,0.4,0.4
			c0,0.1,0,0.3,0,0.4C13.2,9.3,13.2,9.3,13.6,9.3z"/>
		<path class="st15" d="M11.5,11c0-1,0-2.1,0-3.1c0-0.1,0-0.3,0.2-0.3c0.2,0,0.3,0,0.2,0.2c0,0.1,0,0.2,0.1,0.2
			c0.4-0.1,0.3,0.2,0.3,0.4c0,0-0.1,0-0.1,0c-0.2,0-0.3,0-0.3,0.3c0,0.6,0,1.2,0,1.8C11.9,11,11.9,11,11.5,11z"/>
		<path class="st16" d="M14.8,9.7c0.4,0,0.4,0,0.4,0.4c0,0.2,0,0.5,0,0.7c0,0.1,0,0.2-0.1,0.1c-0.2,0-0.3,0.1-0.3,0.3
			c0,0,0,0.1,0,0.1c0,0,0,0,0,0c-0.1,0-0.3,0-0.4,0l0,0c0-0.3,0-0.6,0-0.8c0,0,0,0,0,0c0.1,0,0.1,0,0.2,0c0.2,0,0.3-0.1,0.2-0.3
			C14.8,10.1,14.9,9.9,14.8,9.7L14.8,9.7z"/>
		<path class="st16" d="M13.2,10.6c0,0.4,0,0.4-0.4,0.4c-0.4,0-0.4,0-0.4-0.4c0-0.2,0-0.4,0-0.6c0-0.2,0.1-0.3,0.3-0.3
			c0.1,0,0.1,0,0.2,0c0,0,0,0,0,0c0,0.1,0,0.3,0,0.4C12.7,10.6,12.7,10.6,13.2,10.6L13.2,10.6z"/>
		<path class="st8" d="M14,11.8c0-0.1,0-0.3,0-0.4c0.1,0,0.3,0,0.4,0c0,0,0,0,0,0c0,0.1,0,0.3,0,0.4C14.3,11.8,14.2,11.8,14,11.8
			L14,11.8z"/>
		<path class="st15" d="M12.3,6.8c-0.4,0-0.4,0-0.4-0.4c0.1,0,0.3,0,0.4,0C12.3,6.5,12.3,6.6,12.3,6.8z"/>
		<path class="st15" d="M16.1,11c0-1.5,0-3.1,0-4.6c0,0,0,0,0.1,0c0.4,0,0.4,0,0.4,0.4c0,1.3,0,2.6,0,3.9C16.5,11,16.5,11,16.1,11z"
			/>
		<path class="st9" d="M17.4,11.4c0.1,0,0.3,0,0.4,0c0,0,0,0,0,0c0,0.1,0,0.3,0,0.4c0,0,0,0,0,0c-0.1,0-0.3,0-0.4,0
			C17.4,11.7,17.4,11.6,17.4,11.4z"/>
		<path class="st17" d="M17.4,11.4c0,0.1,0,0.3,0,0.4c0,0,0,0,0,0c-0.1,0-0.3,0-0.4,0c0-0.1,0-0.3,0-0.4
			C17.1,11.4,17.2,11.4,17.4,11.4z"/>
		<path class="st18" d="M17,11.4c0,0.1,0,0.3,0,0.4c0,0,0,0,0,0c-0.1,0-0.3,0-0.4,0c0-0.1,0-0.3,0-0.4C16.7,11.4,16.8,11.4,17,11.4z
			"/>
		<path class="st17" d="M16.5,11.4c0,0.1,0,0.3,0,0.4c0,0,0,0,0,0c-0.1,0-0.3,0-0.4,0c0-0.1,0-0.3,0-0.4
			C16.3,11.4,16.4,11.4,16.5,11.4z"/>
		<path class="st18" d="M16.1,11.4c0,0.1,0,0.3,0,0.4c0,0,0,0,0,0c-0.1,0-0.3,0-0.4,0c0-0.1,0-0.3,0-0.4
			C15.8,11.4,16,11.4,16.1,11.4z"/>
		<path class="st17" d="M15.7,11.4c0,0.1,0,0.3,0,0.4c0,0,0,0,0,0c-0.1,0-0.3,0-0.4,0c0-0.1,0-0.3,0-0.4
			C15.4,11.4,15.6,11.4,15.7,11.4z"/>
		<path class="st18" d="M15.3,11.4c0,0.1,0,0.3,0,0.4c0,0,0,0,0,0c-0.1,0-0.3,0-0.4,0c0-0.1,0-0.3,0-0.4c0,0,0,0,0,0
			C15,11.4,15.1,11.4,15.3,11.4z"/>
		<path class="st15" d="M15.3,8.5c0-0.1,0-0.1,0-0.2c0-0.1,0-0.3,0.2-0.3c0.2,0,0.2,0.1,0.2,0.3c0,0.1,0,0.1,0,0.2
			C15.5,8.5,15.4,8.5,15.3,8.5z"/>
		<path class="st16" d="M17.8,11c0.1,0,0.3,0,0.4,0c0,0.1,0,0.3,0,0.4c0,0,0,0,0,0c-0.1,0-0.3,0-0.4,0c0,0,0,0,0,0
			C17.8,11.3,17.8,11.1,17.8,11z"/>
		<path class="st16" d="M20.3,8c-0.4,0-0.8,0-1.3,0c0,0,0,0,0,0c0-0.3,0-0.6,0-0.8c0.4,0,0.8,0,1.3,0l0,0C20.3,7.5,20.3,7.8,20.3,8z
			"/>
		<path class="st14" d="M20.7,6.8c0.1,0,0.3,0,0.4,0c0,0.3,0,0.6,0,0.8c-0.1,0-0.2,0-0.3,0c-0.1,0-0.1,0-0.1-0.1
			c0.1-0.3-0.1-0.3-0.3-0.3c0,0-0.1,0-0.1,0c0,0,0,0,0,0c0-0.1,0-0.3,0-0.4C20.5,6.8,20.6,6.8,20.7,6.8z"/>
		<path class="st15" d="M21.2,7.6c0-0.3,0-0.6,0-0.8c0.1,0,0.3,0,0.4,0c0,0.2,0,0.4,0,0.6c0,0.2-0.1,0.3-0.3,0.3
			C21.3,7.6,21.2,7.6,21.2,7.6z"/>
		<path class="st14" d="M18.2,11c0-0.4,0-0.4-0.4-0.4c0-0.2,0-0.5,0-0.7c0-0.1,0-0.2,0.1-0.1c0.2,0,0.5,0,0.7,0c0,0,0,0,0,0
			c0,0.2,0,0.5,0,0.7c0,0.1,0,0.2,0.2,0.2c0.4,0,0.7,0,1.1,0c0.4,0,0.4,0,0.4-0.4l0,0c0.1,0,0.1,0,0.2,0c0.1,0,0.3,0.1,0.3-0.2
			c0-0.2-0.1-0.2-0.3-0.2c-0.1,0-0.1,0-0.2,0l0,0c0-0.4,0-0.4-0.4-0.4l0,0c0-0.1,0-0.3,0-0.4c0.1,0,0.3,0,0.4,0c0.1,0,0.3,0,0.4,0
			c0,0.4,0,0.4,0.4,0.4l0,0c0,0.4,0,0.8,0,1.3l0,0c-0.4,0-0.4,0-0.4,0.4C19.9,11,19.1,11,18.2,11z"/>
		<path class="st15" d="M20.7,11c0-0.4,0-0.4,0.4-0.4c0,0.1,0,0.3,0,0.4C21,11,20.9,11,20.7,11z"/>
		<path class="st14" d="M18.6,6.8c0-0.1,0-0.3,0-0.4c0.6,0,1.1,0,1.7,0c0,0.1,0,0.3,0,0.4c-0.4,0-0.8,0-1.3,0
			C18.9,6.8,18.8,6.8,18.6,6.8z"/>
		<path class="st15" d="M20.3,6.8c0-0.1,0-0.3,0-0.4c0.1,0,0.3,0,0.4,0c0,0.1,0,0.3,0,0.4C20.6,6.8,20.5,6.8,20.3,6.8z"/>
		<path class="st16" d="M18.6,9.3c0.4,0,0.8,0,1.3,0c0,0,0,0,0,0c0,0.4,0,0.4,0.4,0.4l0,0c0,0.1,0,0.3,0,0.4l0,0c-0.4,0-0.7,0-1.1,0
			c-0.1,0-0.2,0-0.2-0.2c0-0.2-0.1-0.3-0.3-0.3c-0.1,0-0.1,0-0.2,0c0,0,0,0,0,0C18.6,9.6,18.6,9.4,18.6,9.3z"/>
		<path class="st14" d="M17.8,6.8c0.3,0,0.6,0,0.8,0c0,0.1,0,0.3,0,0.4l0,0c0,0-0.1,0-0.1,0c-0.2,0-0.3,0.1-0.3,0.3c0,0.3,0,0.6,0,1
			c-0.1,0-0.3,0-0.4,0C17.8,7.9,17.8,7.3,17.8,6.8z"/>
		<path class="st15" d="M18.2,8.5c0-0.3,0-0.6,0-1c0-0.2,0.1-0.3,0.3-0.3c0,0,0.1,0,0.1,0c0,0.1,0,0.3,0,0.4c0,0.4,0,0.4,0.4,0.4
			c0,0,0,0,0,0c0,0.1,0,0.3,0,0.4c-0.1,0-0.3,0-0.4,0C18.5,8.5,18.4,8.5,18.2,8.5z"/>
		<path class="st14" d="M18.6,8.5c0.1,0,0.3,0,0.4,0c0.3,0,0.6,0,0.8,0c0,0.1,0,0.3,0,0.4c-0.4,0-0.8,0-1.3,0
			C18.6,8.7,18.6,8.6,18.6,8.5z"/>
		<path class="st15" d="M19.9,8.9c0-0.1,0-0.3,0-0.4c0.1,0,0.3,0,0.4,0c0,0.1,0,0.3,0,0.4C20.2,8.9,20,8.9,19.9,8.9z"/>
		<path class="st15" d="M21.2,10.6c0-0.4,0-0.8,0-1.3c0.1,0,0.3,0,0.4,0c0,0.4,0,0.8,0,1.3C21.4,10.6,21.3,10.6,21.2,10.6z"/>
		<path class="st15" d="M13.2,8.5c-0.4,0-0.4,0-0.4-0.4c0.1,0,0.3,0,0.4,0C13.2,8.2,13.2,8.3,13.2,8.5z"/>
		<path class="st15" d="M12.7,7.6c-0.4,0-0.4,0-0.4-0.4c0.1,0,0.3,0,0.4,0C12.7,7.3,12.7,7.5,12.7,7.6z"/>
		<path class="st15" d="M21.2,9.3c-0.4,0-0.4,0-0.4-0.4c0.1,0,0.3,0,0.4,0C21.2,9,21.2,9.2,21.2,9.3z"/>
		<path class="st15" d="M13.6,9.3c-0.4,0-0.4,0-0.4-0.4c0.1,0,0.3,0,0.4,0C13.6,9,13.6,9.2,13.6,9.3z"/>
		<path class="st15" d="M14,9.7c0,0.1,0,0.1,0,0.2c0,0.1,0,0.3-0.2,0.3c-0.2,0-0.2-0.1-0.2-0.3c0-0.1,0-0.1,0-0.2
			C13.7,9.7,13.9,9.7,14,9.7z"/>
		<path class="st12" d="M20.7,12.7c0.4,0,0.4,0,0.4,0.4c0,0,0,0,0,0c-0.1,0-0.3,0-0.4,0c0,0,0,0,0,0C20.7,13,20.7,12.8,20.7,12.7z"
			/>
		<path class="st9" d="M18.6,13.1c0.1,0,0.3,0,0.4,0c0,0.1,0,0.3,0,0.4c-0.1,0-0.3,0-0.4,0C18.6,13.4,18.6,13.2,18.6,13.1L18.6,13.1
			z"/>
		<path class="st17" d="M19.1,13.5c0-0.1,0-0.3,0-0.4c0.1,0,0.3,0,0.4,0c0,0.1,0,0.3,0,0.4l0,0C19.3,13.5,19.2,13.5,19.1,13.5
			L19.1,13.5z"/>
		<path class="st18" d="M19.5,13.5c0-0.1,0-0.3,0-0.4c0.5,0,0.4-0.1,0.4,0.4C19.7,13.5,19.6,13.5,19.5,13.5z"/>
		<path class="st17" d="M19.5,13.5c0.1,0,0.3,0,0.4,0c0,0.1,0,0.3,0,0.4c-0.1,0-0.3,0-0.4,0C19.5,13.8,19.5,13.6,19.5,13.5
			C19.5,13.5,19.5,13.5,19.5,13.5z"/>
		<path class="st18" d="M19.5,13.9c0.1,0,0.3,0,0.4,0c0,0.1,0,0.3,0,0.4c-0.1,0-0.3,0-0.4,0C19.5,14.2,19.5,14.1,19.5,13.9
			L19.5,13.9z"/>
		<path class="st17" d="M19.5,14.4c0.1,0,0.3,0,0.4,0c0,0.1,0,0.3,0,0.4c-0.1,0-0.3,0-0.4,0C19.5,14.6,19.5,14.5,19.5,14.4
			L19.5,14.4z"/>
		<path class="st18" d="M19.5,14.8c0.1,0,0.3,0,0.4,0c0,0.1,0,0.3,0,0.4c-0.1,0-0.3,0-0.4,0C19.5,15.1,19.5,14.9,19.5,14.8
			L19.5,14.8z"/>
		<path class="st17" d="M19.5,15.2c0.1,0,0.3,0,0.4,0c0,0.1,0,0.3,0,0.4c-0.1,0-0.3,0-0.4,0C19.5,15.5,19.5,15.3,19.5,15.2
			L19.5,15.2z"/>
		<path class="st12" d="M20.3,15.2c0.4,0,0.4,0,0.4,0.4C20.3,15.6,20.3,15.6,20.3,15.2z"/>
		<path class="st18" d="M19.5,15.6c0.1,0,0.3,0,0.4,0c0,0.1,0,0.3,0,0.4c0,0,0,0,0,0c-0.1,0-0.3,0-0.4,0
			C19.5,15.9,19.5,15.8,19.5,15.6L19.5,15.6z"/>
		<path class="st12" d="M20.7,15.6c0.4,0,0.4,0,0.4,0.4c-0.1,0-0.3,0-0.4,0c0,0,0,0,0,0C20.7,15.9,20.7,15.8,20.7,15.6z"/>
		<path class="st10" d="M15.3,18.6c0-0.1,0-0.3,0-0.4c0.1,0,0.3,0,0.4,0c0,0.1,0,0.3,0,0.4c0,0,0,0,0,0
			C15.6,18.6,15.4,18.6,15.3,18.6z"/>
		<path class="st9" d="M15.7,18.6c0-0.1,0-0.3,0-0.4l0,0c0.1,0,0.3,0,0.4,0c0,0.1,0,0.3,0,0.4c0,0,0,0,0,0
			C16,18.6,15.8,18.6,15.7,18.6z"/>
		<path class="st10" d="M16.1,18.6c0-0.1,0-0.3,0-0.4c0,0,0,0,0,0c0.1,0,0.3,0,0.4,0c0,0.1,0,0.3,0,0.4c0,0,0,0,0,0
			C16.4,18.6,16.3,18.6,16.1,18.6z"/>
		<path class="st9" d="M16.5,18.6c0-0.1,0-0.3,0-0.4c0,0,0,0,0,0c0.1,0,0.3,0,0.4,0c0,0.1,0,0.3,0,0.4c0,0,0,0,0,0
			C16.8,18.6,16.7,18.6,16.5,18.6z"/>
		<path class="st10" d="M17,18.6c0-0.1,0-0.3,0-0.4c0,0,0,0,0,0c0.1,0,0.3,0,0.4,0l0,0c0,0.1,0,0.3,0,0.4c0,0,0,0,0,0
			C17.2,18.6,17.1,18.6,17,18.6z"/>
		<path class="st9" d="M17.4,18.6c0-0.1,0-0.3,0-0.4c0.1,0,0.3,0,0.4,0c0,0,0,0,0,0c0,0.1,0,0.3,0,0.4c0,0,0,0,0,0
			C17.7,18.6,17.5,18.6,17.4,18.6z"/>
		<path d="M17.8,18.6c0-0.1,0-0.3,0-0.4c0.4,0,0.4,0,0.4,0.4C18.1,18.6,17.9,18.6,17.8,18.6z"/>
		<path d="M16.1,16c0-0.9,0-1.8,0-2.8c0-0.1,0-0.2-0.2-0.2c-0.2,0-0.4,0-0.7,0l0,0c0-0.1,0-0.3,0-0.4c0.1,0,0.3,0,0.4,0
			c0.1,0,0.3,0,0.4,0c0.1,0,0.3,0,0.4,0l0,0c0,0.1,0,0.3,0,0.4c0,0.1,0,0.1,0,0.2c0,0.1,0,0.2,0.2,0.2c0.2,0,0.2,0,0.2-0.2
			c0-0.1,0-0.1,0-0.2c0-0.1,0-0.3,0-0.4c0-0.1,0-0.3,0-0.4l0,0c0.1,0,0.3,0,0.4,0l0,0c0,0.6,0,1.1,0,1.7c0,0.1,0,0.3,0,0.4
			c-0.1,0-0.1,0-0.2,0c-0.2,0-0.3,0-0.2-0.2c0-0.2-0.1-0.2-0.2-0.2c-0.2,0-0.2,0.1-0.2,0.2c0,0.7,0,1.4,0,2.1c0,0.2,0,0.2,0.2,0.2
			c0.1,0,0.3,0,0.2-0.2c0-0.2,0.1-0.3,0.2-0.2c0.1,0,0.1,0,0.2,0l0,0c0,0.1,0,0.3,0,0.4c0,0.4,0,0.8,0,1.3c0,0,0,0,0,0
			c-0.1,0-0.3,0-0.4,0l0,0c0-0.1,0-0.3,0-0.4c0-0.4,0-0.4-0.4-0.4c-0.4,0-0.4,0-0.4,0.4c0,0,0,0,0,0c-0.1,0-0.3,0-0.4,0c0,0,0,0,0,0
			c0-0.3,0-0.6,0-0.8c0,0,0,0,0,0C16.1,16.5,16.1,16.5,16.1,16z"/>
		<path d="M18.6,13.1c0,0.1,0,0.3,0,0.4c0,0.1,0,0.3,0,0.4c0,0.1,0,0.3,0,0.4c0,0.1,0,0.3,0,0.4c0,0.1,0,0.3,0,0.4
			c0,0.1,0,0.3,0,0.4c0,0.1,0,0.3,0,0.4l0,0c-0.4,0-0.8,0-1.3,0c0,0,0,0,0,0c0-0.4,0-0.4,0.4-0.4c0.1,0,0.2,0,0.2,0
			c0.2,0,0.2,0,0.2-0.2c0-0.1,0-0.3-0.2-0.2c-0.2,0-0.3-0.1-0.2-0.2c0-0.1,0-0.1,0-0.2c0.4,0,0.4,0,0.4-0.4c0-0.3,0-0.7,0-1
			c0-0.2,0.1-0.3,0.3-0.3C18.5,13.1,18.6,13.1,18.6,13.1z"/>
		<path d="M19.5,16c0.1,0,0.3,0,0.4,0c0,0.4,0,0.4,0.4,0.4c0.1,0,0.3,0,0.4,0c0,0.4,0,0.4-0.4,0.4c-0.3,0-0.7,0-1,0
			c-0.2,0-0.3,0-0.3-0.3c0-0.1,0-0.1,0-0.2l0,0C19.5,16.5,19.5,16.5,19.5,16C19.5,16,19.5,16,19.5,16L19.5,16z"/>
		<path d="M19.1,16.5c-0.4,0-0.4,0-0.4-0.4c0,0,0,0,0,0c0.1,0,0.3,0,0.4,0l0,0C19.1,16.2,19.1,16.3,19.1,16.5L19.1,16.5z"/>
		<path d="M20.7,16c0.1,0,0.3,0,0.4,0c0,0.4,0,0.4-0.4,0.4C20.7,16.3,20.7,16.2,20.7,16z"/>
		<path d="M17.8,18.1c-0.1,0-0.3,0-0.4,0c0,0,0,0,0,0c0-0.1,0-0.3,0-0.4c0,0,0,0,0,0C17.8,17.7,17.8,17.7,17.8,18.1z"/>
		<path d="M17.4,11.8c0.1,0,0.3,0,0.4,0c0,0.4,0,0.4-0.4,0.4c0,0,0,0,0,0C17.4,12.1,17.4,12,17.4,11.8L17.4,11.8z"/>
		<path d="M17.8,11.4c0.1,0,0.3,0,0.4,0c0,0.4,0,0.4-0.4,0.4C17.8,11.7,17.8,11.5,17.8,11.4z"/>
		<path class="st12" d="M17.4,14.4c0-0.1,0-0.3,0-0.4c0.4,0,0.4,0,0.4,0.4c0,0,0,0,0,0C17.6,14.4,17.5,14.4,17.4,14.4L17.4,14.4z"/>
		<path class="st12" d="M18.2,14.3c0,0.4,0,0.4-0.4,0.4l0,0c0-0.1,0-0.3,0-0.4c0,0,0,0,0,0C17.9,14.3,18.1,14.3,18.2,14.3z"/>
		<path d="M20.7,13.1c0.1,0,0.3,0,0.4,0c0,0.1,0,0.3,0,0.4C20.7,13.5,20.7,13.5,20.7,13.1z"/>
		<path class="st8" d="M15.7,16.5c0,0.3,0,0.6,0,0.8c-0.1,0-0.3,0-0.4,0c0-0.2,0-0.4,0-0.5c0-0.2,0.1-0.3,0.3-0.3
			C15.6,16.5,15.6,16.5,15.7,16.5z"/>
		<path class="st18" d="M15.7,17.3c0.1,0,0.3,0,0.4,0c0,0,0,0,0,0c0,0.1,0,0.3,0,0.4l0,0c-0.1,0-0.3,0-0.4,0l0,0
			C15.7,17.6,15.7,17.4,15.7,17.3z"/>
		<path class="st18" d="M15.7,18.1c-0.1,0-0.3,0-0.4,0c0-0.4,0-0.4,0.4-0.4c0,0,0,0,0,0C15.7,17.9,15.7,18,15.7,18.1L15.7,18.1z"/>
		<path d="M14.4,16.5c0,0.4,0,0.4-0.4,0.4c-0.6,0-1.3,0-1.9,0c-0.1,0-0.2,0-0.2-0.2c0-1.1,0-2.1,0-3.2c0.3,0,0.7,0,1,0
			c0.2,0,0.3,0,0.2-0.2c0-0.2,0.1-0.2,0.2-0.2c0.1,0,0.1,0,0.2,0l0,0c0,0.1,0,0.3,0,0.4c0,0.1,0,0.3,0,0.4c0,0.1,0,0.3,0,0.4
			c0,0.1,0,0.3,0,0.4c0,0.1,0,0.3,0,0.4c0,0.1,0,0.3,0,0.4c0,0.1,0,0.3,0,0.4c0,0-0.1,0-0.1,0c-0.2,0-0.3,0-0.3-0.3
			c0-0.4,0-0.8,0-1.2c0-0.7,0-0.7-0.7-0.6c-0.1,0-0.1,0-0.1,0.2c0,0.7,0,1.5,0,2.2c0,0.1,0,0.2,0.1,0.1c0.2,0,0.5,0,0.7,0
			c0.4,0,0.4,0,0.4-0.4c0.1,0,0.3,0,0.4,0C14,16.5,14,16.5,14.4,16.5L14.4,16.5z"/>
		<path d="M15.3,13.1c0,0.9,0,1.8,0,2.6c0,0.2,0,0.4-0.3,0.3c-0.1,0-0.2,0-0.1,0.1c0.1,0.4-0.2,0.3-0.4,0.3c0,0,0,0,0,0
			c0-0.1,0-0.3,0-0.4c0-0.1,0-0.3,0-0.4c0.4,0,0.4,0,0.4-0.4c0-0.1,0-0.3,0-0.4c0-0.1,0-0.3,0-0.4c0-0.1,0-0.3,0-0.4
			c0-0.1,0-0.3,0-0.4c0-0.1,0-0.3,0-0.4C15,13.1,15.1,13.1,15.3,13.1L15.3,13.1z"/>
		<path class="st8" d="M13.6,13.1c-0.1,0-0.1,0-0.2,0c-0.2,0-0.2,0-0.2,0.2c0,0.2-0.1,0.2-0.2,0.2c-0.3,0-0.7,0-1,0
			c0-0.3-0.1-0.6,0.1-0.8c0.2-0.2,0.5,0,0.8,0c0.3,0,0.6,0,0.9,0C13.6,12.8,13.6,12.9,13.6,13.1z"/>
		<path d="M13.6,13.1c0-0.1,0-0.3,0-0.4c0-0.1,0-0.3,0-0.4c0.1,0,0.3,0,0.4,0l0,0c0,0.1,0,0.3,0,0.4c0,0.1,0,0.3,0,0.4
			C13.9,13.1,13.7,13.1,13.6,13.1L13.6,13.1z"/>
		<path class="st8" d="M14,12.2c-0.1,0-0.3,0-0.4,0c0-0.4,0-0.4,0.4-0.4c0,0,0,0,0,0C14,12,14,12.1,14,12.2z"/>
		<path class="st8" d="M16.1,16c0,0.4,0,0.4-0.4,0.4C15.7,16,15.7,16,16.1,16z"/>
		<path d="M14.9,9.7c0,0.2,0,0.4,0,0.6c0,0.2,0,0.3-0.2,0.3c-0.1,0-0.1,0-0.2,0c0-0.2,0-0.4,0-0.6c0-0.2,0-0.3,0.2-0.3
			C14.7,9.7,14.8,9.7,14.9,9.7z"/>
		<path d="M13.2,10.6c-0.4,0-0.4,0-0.4-0.4c0-0.1,0-0.3,0-0.4c0.4,0,0.4,0,0.4,0.4C13.2,10.3,13.2,10.4,13.2,10.6z"/>
		<path d="M14.9,11.4c0,0.1,0,0.3,0,0.4c0,0,0,0,0,0c-0.1,0-0.3,0-0.4,0l0,0c0-0.1,0-0.3,0-0.4C14.6,11.4,14.7,11.4,14.9,11.4z"/>
		<path d="M14,12.2c0-0.1,0-0.3,0-0.4c0.1,0,0.3,0,0.4,0c0,0,0,0,0,0c0,0.1,0,0.3,0,0.4C14.3,12.2,14.2,12.2,14,12.2L14,12.2z"/>
		<path class="st9" d="M17.4,11.8c0,0.1,0,0.3,0,0.4c-0.1,0-0.3,0-0.4,0c0-0.1,0-0.3,0-0.4c0,0,0,0,0,0
			C17.1,11.8,17.2,11.8,17.4,11.8z"/>
		<path class="st17" d="M17,11.8c0,0.1,0,0.3,0,0.4c0,0,0,0,0,0c-0.1,0-0.3,0-0.4,0l0,0c0-0.1,0-0.3,0-0.4c0,0,0,0,0,0
			C16.7,11.8,16.8,11.8,17,11.8z"/>
		<path class="st18" d="M16.5,11.8c0,0.1,0,0.3,0,0.4c-0.1,0-0.3,0-0.4,0l0,0c0-0.1,0-0.3,0-0.4c0,0,0,0,0,0
			C16.3,11.8,16.4,11.8,16.5,11.8z"/>
		<path class="st17" d="M16.1,11.8c0,0.1,0,0.3,0,0.4c-0.1,0-0.3,0-0.4,0l0,0c0-0.1,0-0.3,0-0.4c0,0,0,0,0,0
			C15.8,11.8,16,11.8,16.1,11.8z"/>
		<path class="st18" d="M15.7,11.8c0,0.1,0,0.3,0,0.4c-0.1,0-0.3,0-0.4,0c0-0.1,0-0.3,0-0.4c0,0,0,0,0,0
			C15.4,11.8,15.6,11.8,15.7,11.8z"/>
		<path class="st17" d="M15.3,11.8c0,0.1,0,0.3,0,0.4c0,0,0,0,0,0c-0.1,0-0.3,0-0.4,0c0-0.1,0-0.3,0-0.4c0,0,0,0,0,0
			C15,11.8,15.1,11.8,15.3,11.8z"/>
		<path d="M19.1,6.8c0.4,0,0.8,0,1.3,0c0,0.1,0,0.3,0,0.4c-0.4,0-0.8,0-1.3,0c0,0,0,0,0,0C19.1,7.1,19.1,6.9,19.1,6.8z"/>
		<path d="M19.1,8c-0.4,0-0.4,0-0.4-0.4c0-0.1,0-0.3,0-0.4c0,0,0,0,0,0c0.1,0,0.3,0,0.4,0c0,0,0,0,0,0C19.1,7.5,19.1,7.8,19.1,8z"/>
		<path d="M18.6,9.7c0.1,0,0.1,0,0.2,0c0.2,0,0.3,0,0.3,0.3c0,0.1,0,0.2,0.2,0.2c0.4,0,0.7,0,1.1,0c0,0.4,0,0.4-0.4,0.4
			c-0.4,0-0.7,0-1.1,0c-0.1,0-0.2,0-0.2-0.2C18.6,10.2,18.6,9.9,18.6,9.7z"/>
		<path d="M20.3,9.7c-0.4,0-0.4,0-0.4-0.4C20.3,9.3,20.3,9.3,20.3,9.7z"/>
		<path d="M20.3,10.1c0-0.1,0-0.3,0-0.4c0.1,0,0.1,0,0.2,0c0.2,0,0.3,0,0.3,0.2c0,0.3-0.1,0.2-0.3,0.2
			C20.4,10.1,20.4,10.1,20.3,10.1z"/>
		<path class="st15" d="M19.1,7.2c-0.1,0-0.3,0-0.4,0c0-0.1,0-0.3,0-0.4c0.1,0,0.3,0,0.4,0C19.1,6.9,19.1,7.1,19.1,7.2z"/>
		<path class="st10" d="M18.6,13.9c0-0.1,0-0.3,0-0.4c0.1,0,0.3,0,0.4,0c0,0,0,0,0,0c0,0.1,0,0.3,0,0.4l0,0
			C18.9,13.9,18.8,13.9,18.6,13.9z"/>
		<path class="st18" d="M19.1,13.9c0-0.1,0-0.3,0-0.4c0.1,0,0.3,0,0.4,0c0,0.1,0,0.3,0,0.4l0,0C19.3,13.9,19.2,13.9,19.1,13.9z"/>
		<path class="st17" d="M19.1,13.9c0.1,0,0.3,0,0.4,0c0,0.1,0,0.3,0,0.4c0,0,0,0,0,0c-0.1,0-0.3,0-0.4,0
			C19.1,14.2,19.1,14.1,19.1,13.9L19.1,13.9z"/>
		<path class="st18" d="M19.1,14.4c0.1,0,0.3,0,0.4,0c0,0.1,0,0.3,0,0.4l0,0c-0.1,0-0.3,0-0.4,0C19.1,14.6,19.1,14.5,19.1,14.4
			L19.1,14.4z"/>
		<path class="st17" d="M19.1,14.8c0.1,0,0.3,0,0.4,0c0,0.1,0,0.3,0,0.4c0,0,0,0,0,0c-0.1,0-0.3,0-0.4,0
			C19.1,15.1,19.1,14.9,19.1,14.8C19.1,14.8,19.1,14.8,19.1,14.8z"/>
		<path class="st18" d="M19.1,15.2c0.1,0,0.3,0,0.4,0c0,0.1,0,0.3,0,0.4l0,0c-0.1,0-0.3,0-0.4,0C19.1,15.5,19.1,15.3,19.1,15.2
			L19.1,15.2z"/>
		<path class="st17" d="M19.1,15.6c0.1,0,0.3,0,0.4,0c0,0.1,0,0.3,0,0.4c0,0,0,0,0,0c-0.1,0-0.3,0-0.4,0c0,0,0,0,0,0
			C19.1,15.9,19.1,15.8,19.1,15.6C19.1,15.6,19.1,15.6,19.1,15.6z"/>
		<path class="st17" d="M15.7,18.1c0-0.1,0-0.3,0-0.4c0.1,0,0.3,0,0.4,0c0,0.1,0,0.3,0,0.4c0,0,0,0,0,0C16,18.1,15.8,18.1,15.7,18.1
			z"/>
		<path class="st18" d="M16.1,18.1c0-0.1,0-0.3,0-0.4c0,0,0,0,0,0c0.1,0,0.3,0,0.4,0l0,0c0,0.1,0,0.3,0,0.4c0,0,0,0,0,0
			C16.4,18.1,16.2,18.1,16.1,18.1z"/>
		<path class="st17" d="M16.5,18.1c0-0.1,0-0.3,0-0.4c0.1,0,0.3,0,0.4,0l0,0c0,0.1,0,0.3,0,0.4c0,0,0,0,0,0
			C16.8,18.1,16.7,18.1,16.5,18.1z"/>
		<path class="st18" d="M16.9,18.1c0-0.1,0-0.3,0-0.4c0.1,0,0.3,0,0.4,0c0,0.1,0,0.3,0,0.4C17.2,18.1,17.1,18.1,16.9,18.1z"/>
		<path class="st17" d="M15.3,12.2c0.1,0,0.3,0,0.4,0c0,0,0,0,0,0c0,0.1,0,0.3,0,0.4c-0.1,0-0.3,0-0.4,0c0,0,0,0,0,0
			C15.3,12.5,15.3,12.4,15.3,12.2L15.3,12.2z"/>
		<path class="st18" d="M15.7,12.7c0-0.1,0-0.3,0-0.4c0.1,0,0.3,0,0.4,0c0,0,0,0,0,0c0,0.1,0,0.3,0,0.4C16,12.7,15.8,12.7,15.7,12.7
			z"/>
		<path class="st17" d="M16.1,12.7c0-0.1,0-0.3,0-0.4c0.1,0,0.3,0,0.4,0l0,0c0,0.1,0,0.3,0,0.4C16.4,12.7,16.3,12.7,16.1,12.7z"/>
		<path class="st18" d="M16.5,12.7c0-0.1,0-0.3,0-0.4c0.1,0,0.3,0,0.4,0c0,0.1,0,0.3,0,0.4C16.8,12.7,16.7,12.7,16.5,12.7
			C16.5,12.7,16.5,12.7,16.5,12.7z"/>
		<path class="st10" d="M15.3,13.1c-0.1,0-0.3,0-0.4,0c0,0,0,0,0,0c0-0.1,0-0.3,0-0.4c0.1,0,0.3,0,0.4,0c0,0,0,0,0,0
			C15.3,12.8,15.3,12.9,15.3,13.1z"/>
		<path class="st10" d="M16.5,12.7c0.1,0,0.3,0,0.4,0c0,0.1,0,0.3,0,0.4c-0.1,0-0.3,0-0.4,0C16.5,12.9,16.5,12.8,16.5,12.7z"/>
		<path class="st9" d="M16.5,13.1c0.1,0,0.3,0,0.4,0c0,0.1,0,0.1,0,0.2c0,0.2-0.1,0.2-0.2,0.2c-0.2,0-0.2-0.1-0.2-0.2
			C16.5,13.2,16.5,13.2,16.5,13.1z"/>
		<path class="st18" d="M16.1,17.3C16.1,17.3,16.1,17.3,16.1,17.3c0-0.4,0-0.4,0.4-0.4c0,0.1,0,0.3,0,0.4l0,0
			C16.4,17.3,16.3,17.3,16.1,17.3L16.1,17.3z"/>
		<path class="st17" d="M16.5,17.3c0-0.1,0-0.3,0-0.4c0.4,0,0.4,0,0.4,0.4C16.8,17.3,16.7,17.3,16.5,17.3z"/>
		<path class="st18" d="M16.5,17.3c0.1,0,0.3,0,0.4,0c0,0.1,0,0.3,0,0.4c-0.1,0-0.3,0-0.4,0c0,0,0,0,0,0
			C16.5,17.6,16.5,17.4,16.5,17.3L16.5,17.3z"/>
		<path class="st9" d="M19.1,13.9c0,0.1,0,0.3,0,0.4c0,0,0,0,0,0c-0.1,0-0.3,0-0.4,0c0-0.1,0-0.3,0-0.4
			C18.8,13.9,18.9,13.9,19.1,13.9z"/>
		<path class="st10" d="M18.6,14.4c0.1,0,0.3,0,0.4,0c0,0.1,0,0.3,0,0.4c0,0,0,0,0,0c-0.1,0-0.3,0-0.4,0
			C18.6,14.6,18.6,14.5,18.6,14.4z"/>
		<path class="st9" d="M18.6,14.8c0.1,0,0.3,0,0.4,0c0,0.1,0,0.3,0,0.4c0,0,0,0,0,0c-0.1,0-0.3,0-0.4,0
			C18.6,15.1,18.6,14.9,18.6,14.8z"/>
		<path class="st10" d="M18.6,15.2c0.1,0,0.3,0,0.4,0c0,0.1,0,0.3,0,0.4c0,0,0,0,0,0c-0.1,0-0.3,0-0.4,0
			C18.6,15.5,18.6,15.3,18.6,15.2z"/>
		<path class="st9" d="M18.6,15.6c0.1,0,0.3,0,0.4,0c0,0.1,0,0.3,0,0.4c-0.1,0-0.3,0-0.4,0C18.6,15.9,18.6,15.7,18.6,15.6z"/>
		<path class="st18" d="M19.1,16c0.1,0,0.3,0,0.4,0c0,0,0,0,0,0c0,0.4,0,0.4-0.4,0.4C19.1,16.3,19.1,16.2,19.1,16z"/>
		<path d="M17.8,14.8c-0.4,0-0.4,0-0.4-0.4c0.1,0,0.3,0,0.4,0C17.8,14.5,17.8,14.6,17.8,14.8z"/>
		<path class="st17" d="M16.5,17.3c0,0.1,0,0.3,0,0.4c-0.1,0-0.3,0-0.4,0c0-0.1,0-0.3,0-0.4C16.3,17.3,16.4,17.3,16.5,17.3z"/>
		<path class="st17" d="M13.6,13.1c0.1,0,0.3,0,0.4,0c0,0,0,0,0,0c0,0.1,0,0.3,0,0.4c-0.1,0-0.3,0-0.4,0
			C13.6,13.4,13.6,13.2,13.6,13.1z"/>
		<path class="st18" d="M13.6,13.5c0.1,0,0.3,0,0.4,0c0,0,0,0,0,0c0,0.1,0,0.3,0,0.4c-0.1,0-0.3,0-0.4,0
			C13.6,13.8,13.6,13.6,13.6,13.5z"/>
		<path class="st17" d="M13.6,13.9c0.1,0,0.3,0,0.4,0c0,0,0,0,0,0c0,0.1,0,0.3,0,0.4c-0.1,0-0.3,0-0.4,0
			C13.6,14.2,13.6,14.1,13.6,13.9z"/>
		<path class="st18" d="M13.6,14.4c0.1,0,0.3,0,0.4,0c0,0,0,0,0,0c0,0.1,0,0.3,0,0.4c-0.1,0-0.3,0-0.4,0
			C13.6,14.6,13.6,14.5,13.6,14.4z"/>
		<path class="st17" d="M13.6,14.8c0.1,0,0.3,0,0.4,0c0,0,0,0,0,0c0,0.1,0,0.3,0,0.4c-0.1,0-0.3,0-0.4,0
			C13.6,15.1,13.6,14.9,13.6,14.8z"/>
		<path class="st18" d="M13.6,15.2c0.1,0,0.3,0,0.4,0c0,0,0,0,0,0c0,0.1,0,0.3,0,0.4l0,0c-0.1,0-0.3,0-0.4,0
			C13.6,15.5,13.6,15.3,13.6,15.2z"/>
		<path class="st17" d="M13.6,15.6c0.1,0,0.3,0,0.4,0c0,0.1,0,0.3,0,0.4l0,0c-0.1,0-0.3,0-0.4,0c0,0,0,0,0,0
			C13.6,15.9,13.6,15.8,13.6,15.6z"/>
		<path class="st17" d="M14.4,16c0,0.1,0,0.3,0,0.4c-0.4,0-0.4,0-0.4-0.4l0,0C14.1,16,14.3,16,14.4,16z"/>
		<path class="st10" d="M14.9,13.1c0,0.1,0,0.3,0,0.4c-0.1,0-0.3,0-0.4,0c0-0.1,0-0.3,0-0.4l0,0C14.6,13.1,14.7,13.1,14.9,13.1
			C14.8,13.1,14.9,13.1,14.9,13.1z"/>
		<path class="st9" d="M14.4,13.5c0.1,0,0.3,0,0.4,0c0,0.1,0,0.3,0,0.4c-0.1,0-0.3,0-0.4,0C14.4,13.8,14.4,13.6,14.4,13.5L14.4,13.5
			z"/>
		<path class="st10" d="M14.4,13.9c0.1,0,0.3,0,0.4,0c0,0.1,0,0.3,0,0.4c-0.1,0-0.3,0-0.4,0C14.4,14.2,14.4,14.1,14.4,13.9
			L14.4,13.9z"/>
		<path class="st9" d="M14.4,14.3c0.1,0,0.3,0,0.4,0c0,0.1,0,0.3,0,0.4c-0.1,0-0.3,0-0.4,0C14.4,14.6,14.4,14.5,14.4,14.3L14.4,14.3
			z"/>
		<path class="st10" d="M14.4,14.8c0.1,0,0.3,0,0.4,0c0,0.1,0,0.3,0,0.4c-0.1,0-0.3,0-0.4,0C14.4,15,14.4,14.9,14.4,14.8L14.4,14.8z
			"/>
		<path class="st9" d="M14.4,15.2c0.1,0,0.3,0,0.4,0c0,0.4,0,0.4-0.4,0.4c0,0,0,0,0,0C14.4,15.5,14.4,15.3,14.4,15.2L14.4,15.2z"/>
		<path class="st18" d="M14.4,16c-0.1,0-0.3,0-0.4,0c0-0.1,0-0.3,0-0.4c0,0,0,0,0,0c0.1,0,0.3,0,0.4,0c0,0,0,0,0,0
			C14.4,15.8,14.4,15.9,14.4,16z"/>
		<path class="st18" d="M14,12.3c0.1,0,0.3,0,0.4,0c0,0,0,0,0,0c0,0.1,0,0.3,0,0.4l0,0c-0.1,0-0.3,0-0.4,0C14,12.5,14,12.4,14,12.3z
			"/>
		<path class="st17" d="M14,12.7c0.1,0,0.3,0,0.4,0c0,0.1,0,0.3,0,0.4l0,0c-0.1,0-0.3,0-0.4,0c0,0,0,0,0,0C14,12.9,14,12.8,14,12.7z
			"/>
		<path class="st18" d="M14.9,11.8c0,0.1,0,0.3,0,0.4c0,0,0,0,0,0c-0.1,0-0.3,0-0.4,0c0,0,0,0,0,0c0-0.1,0-0.3,0-0.4
			C14.6,11.8,14.7,11.8,14.9,11.8z"/>
		<path class="st18" d="M15.3,12.7c-0.1,0-0.3,0-0.4,0c0,0,0,0,0,0c0-0.1,0-0.3,0-0.4c0,0,0,0,0,0c0.1,0,0.3,0,0.4,0
			C15.3,12.4,15.3,12.5,15.3,12.7z"/>
		<path class="st18" d="M14.4,13.1c0-0.1,0-0.3,0-0.4c0,0,0,0,0,0c0.1,0,0.3,0,0.4,0c0,0,0,0,0,0c0,0.1,0,0.3,0,0.4
			C14.7,13.1,14.6,13.1,14.4,13.1z"/>
		<path class="st18" d="M14,13.1c0.1,0,0.3,0,0.4,0c0,0.1,0,0.3,0,0.4c0,0,0,0,0,0c-0.1,0-0.3,0-0.4,0c0,0,0,0,0,0
			C14,13.4,14,13.2,14,13.1z"/>
		<path class="st17" d="M14,13.5c0.1,0,0.3,0,0.4,0c0,0.1,0,0.3,0,0.4c0,0,0,0,0,0c-0.1,0-0.3,0-0.4,0c0,0,0,0,0,0
			C14,13.8,14,13.6,14,13.5z"/>
		<path class="st18" d="M14,13.9c0.1,0,0.3,0,0.4,0c0,0.1,0,0.3,0,0.4c0,0,0,0,0,0c-0.1,0-0.3,0-0.4,0c0,0,0,0,0,0
			C14,14.2,14,14.1,14,13.9z"/>
		<path class="st17" d="M14,14.3c0.1,0,0.3,0,0.4,0c0,0.1,0,0.3,0,0.4c0,0,0,0,0,0c-0.1,0-0.3,0-0.4,0c0,0,0,0,0,0
			C14,14.6,14,14.5,14,14.3z"/>
		<path class="st18" d="M14,14.8c0.1,0,0.3,0,0.4,0c0,0.1,0,0.3,0,0.4c0,0,0,0,0,0c-0.1,0-0.3,0-0.4,0c0,0,0,0,0,0
			C14,15.1,14,14.9,14,14.8z"/>
		<path class="st17" d="M14,15.2c0.1,0,0.3,0,0.4,0c0,0.1,0,0.3,0,0.4c-0.1,0-0.3,0-0.4,0C14,15.5,14,15.3,14,15.2z"/>
		<path class="st17" d="M14.9,12.7c-0.1,0-0.3,0-0.4,0c0-0.1,0-0.3,0-0.4c0.1,0,0.3,0,0.4,0C14.9,12.4,14.9,12.5,14.9,12.7z"/>
	</g>
</g>
</svg>
